<?xml version="1.0" standalone="no"?>
<!DOCTYPE svg PUBLIC "-//W3C//DTD SVG 20010904//EN"
 "http://www.w3.org/TR/2001/REC-SVG-20010904/DTD/svg10.dtd">
<svg version="1.0" xmlns="http://www.w3.org/2000/svg"
 width="2000.000000pt" height="2000.000000pt" viewBox="0 0 2000.000000 2000.000000"
 preserveAspectRatio="xMidYMid meet">

<g transform="translate(0.000000,2000.000000) scale(0.100000,-0.100000)"
fill="#000000" stroke="none">
<path d="M4835 15522 c-27 -2 -53 -9 -57 -15 -4 -7 -8 -2069 -8 -4583 0 -3541
3 -4573 12 -4582 8 -8 65 -12 190 -12 l178 0 2 4388 3 4387 4400 5 4400 5 0
192 c0 119 -4 196 -10 202 -7 7 -1431 12 -4535 13 -2489 2 -4547 2 -4575 0z"/>
<path d="M14835 14078 c-3 -7 -6 -2072 -8 -4588 l-2 -4575 -4592 -3 c-3664 -2
-4593 -5 -4593 -15 -3 -77 2 -367 7 -384 l5 -23 4784 0 4784 0 5 23 c3 12 4
2171 3 4797 l-3 4775 -193 3 c-148 2 -194 0 -197 -10z"/>
<path d="M6660 12385 l0 -1525 343 2 342 3 3 638 c1 351 6 637 11 635 7 -3
267 -298 521 -593 52 -60 97 -112 100 -115 3 -3 77 -88 165 -190 88 -102 168
-194 178 -205 10 -11 48 -55 84 -97 l66 -78 474 0 c305 0 473 4 471 10 -2 7
-740 846 -813 924 -6 6 -78 88 -160 181 -82 94 -164 186 -181 205 -145 161
-244 276 -244 284 0 10 39 59 140 177 36 41 85 100 110 129 25 29 128 151 229
269 101 119 195 230 210 247 141 168 454 536 483 568 20 22 34 44 32 48 -3 5
-191 8 -417 8 l-412 0 -111 -132 c-179 -215 -344 -411 -367 -438 -12 -14 -90
-106 -172 -205 -82 -99 -152 -182 -155 -185 -3 -3 -52 -61 -110 -130 -57 -69
-109 -128 -115 -132 -7 -5 -12 187 -15 605 l-5 612 -342 3 -343 2 0 -1525z"/>
<path d="M11218 13903 c-2 -5 -2 -142 0 -305 l3 -298 359 0 360 0 2 -1217 3
-1218 345 0 345 0 3 1218 2 1217 360 0 360 0 0 305 0 305 -1069 0 c-589 0
-1071 -3 -1073 -7z"/>
<path d="M12325 8774 c-381 -56 -715 -224 -986 -494 -159 -159 -265 -320 -348
-527 -158 -397 -147 -796 34 -1180 222 -471 688 -823 1217 -919 253 -45 656
-17 908 63 126 40 380 169 380 193 0 12 -277 561 -289 573 -6 6 -24 -2 -44
-17 -65 -50 -243 -112 -407 -142 -175 -32 -455 1 -619 72 -193 85 -366 256
-457 454 -29 61 -36 81 -64 188 -16 63 -14 285 3 352 51 190 119 313 247 447
223 233 683 336 1020 229 129 -41 231 -84 282 -119 16 -10 33 -15 38 -12 11 7
290 558 290 573 0 25 -251 154 -355 183 -16 4 -64 17 -105 29 -223 63 -534 85
-745 54z"/>
<path d="M6472 7208 l3 -1523 340 0 340 0 3 593 c1 325 6 592 10 592 4 0 70
-82 147 -181 77 -100 169 -219 205 -264 36 -46 99 -127 140 -181 41 -53 102
-132 135 -175 33 -42 96 -124 139 -181 44 -56 100 -127 124 -155 l44 -53 430
0 c367 0 429 2 426 14 -3 13 -586 719 -941 1140 -95 113 -95 112 -49 127 114
37 240 119 339 221 81 83 136 169 177 272 49 121 60 195 60 381 0 189 -17 281
-74 402 -103 221 -314 389 -570 454 -142 36 -188 39 -813 39 l-617 0 2 -1522z
m1070 947 c98 -25 166 -69 210 -135 50 -75 63 -127 63 -250 -1 -93 -4 -112
-28 -163 -77 -168 -188 -220 -472 -221 l-150 -1 -3 385 c-1 212 0 391 3 399 8
20 288 10 377 -14z"/>
</g>
</svg>
